<svg width="60" height="87" viewBox="0 0 60 87" fill="none" xmlns="http://www.w3.org/2000/svg">
<circle cx="34.6508" cy="51.0529" r="24.85" fill="#FF8873"/>
<path d="M52.2754 18.4594C53 21.7719 53 24.4633 53 27.0511C53 37.8168 47.2031 44.2347 39.6465 49.1V59.6586C39.6465 61.3148 38.4043 63.2816 36.9551 64.1097L26.707 69.182C26.3965 69.2855 25.9824 69.389 25.6719 69.389C24.2227 69.389 23.1875 68.3539 23.1875 66.9047V57.3812L20.9102 58.4164C20.4961 58.6234 19.875 58.8304 19.4609 58.8304C18.7363 58.8304 17.7012 58.3129 17.1836 57.7953L11.5938 52.309C11.0762 51.6879 10.5586 50.6527 10.5586 49.9281C10.5586 49.514 10.7656 48.8929 10.9727 48.4789L12.0078 46.2015H2.48438C1.03516 46.2015 0 45.1664 0 43.7172C0 43.4066 0.103516 42.9926 0.207031 42.682L5.38281 32.434C6.10742 30.8812 8.07422 29.7426 9.73047 29.639H20.2891C25.1543 22.1859 31.5723 16.389 42.3379 16.389C44.9258 16.389 47.6172 16.389 50.9297 17.1136C51.5508 17.3207 52.0684 17.8383 52.2754 18.4594ZM13.25 42.889H13.6641C15.3203 39.5765 17.1836 35.9535 18.6328 32.9515H9.73047C9.21289 33.0551 8.5918 33.3656 8.28125 33.8832L3.83008 42.889H13.25ZM36.334 59.6586V50.7562C33.4355 52.2054 29.8125 54.0687 26.5 55.725V65.559L35.5059 61.1078C35.9199 60.9008 36.334 60.1761 36.334 59.6586ZM37.8867 46.3051C46.0645 41.1293 49.6875 35.2289 49.584 27.0511C49.6875 24.8773 49.6875 22.807 49.1699 20.2191C46.6855 19.7015 44.5117 19.7015 42.3379 19.7015C34.1602 19.7015 28.2598 23.3246 23.084 31.5023C21.0137 35.5394 16.0449 45.5804 13.8711 49.9281L19.4609 55.5179C23.8086 53.3441 33.8496 48.3754 37.8867 46.3051ZM38.0938 24.6703C41.7168 24.7738 44.6152 27.6722 44.7188 31.2953C44.7188 35.0219 41.7168 37.9203 38.0938 37.9203C34.3672 37.9203 31.4688 35.0219 31.4688 31.2953C31.4688 27.6722 34.3672 24.6703 38.0938 24.6703ZM38.0938 34.6078C39.8535 34.6078 41.4062 33.1586 41.4062 31.2953C41.4062 29.5355 39.8535 27.9828 38.0938 27.9828C36.2305 27.9828 34.7812 29.5355 34.7812 31.2953C34.7812 33.1586 36.2305 34.6078 38.0938 34.6078Z" fill="#092347"/>
</svg>
