<svg width="60" height="87" viewBox="0 0 60 87" fill="none" xmlns="http://www.w3.org/2000/svg">
<circle cx="34.6498" cy="48.653" r="24.85" fill="#EFC778"/>
<path d="M26 17.2172C40.1816 17.2172 51.6719 28.7074 51.6719 42.889C51.6719 57.0707 40.1816 68.5609 26 68.5609C11.8184 68.5609 0.328125 57.0707 0.328125 42.889C0.328125 28.7074 11.8184 17.2172 26 17.2172ZM26 65.2484C38.3184 65.2484 48.3594 55.3109 48.3594 42.889C48.3594 30.5707 38.3184 20.5297 26 20.5297C13.5781 20.5297 3.64062 30.5707 3.64062 42.889C3.64062 55.3109 13.5781 65.2484 26 65.2484ZM35.3164 50.1351C35.834 49.4105 36.9727 49.4105 37.5938 49.9281C38.3184 50.5492 38.4219 51.5844 37.8008 52.309C34.9023 55.8285 30.5547 57.7953 26 57.7953C21.3418 57.7953 16.9941 55.8285 14.0957 52.309C13.4746 51.5844 13.5781 50.5492 14.3027 49.9281C15.0273 49.4105 16.0625 49.4105 16.5801 50.1351C18.9609 52.9301 22.377 54.4828 26 54.4828C29.5195 54.4828 32.9355 52.9301 35.3164 50.1351ZM17.7188 41.2328C15.8555 41.2328 14.4062 39.7836 14.4062 37.9203C14.4062 36.1605 15.8555 34.6078 17.7188 34.6078C19.4785 34.6078 21.0312 36.1605 21.0312 37.9203C21.0312 39.7836 19.4785 41.2328 17.7188 41.2328ZM34.2812 41.2328C32.418 41.2328 30.9688 39.7836 30.9688 37.9203C30.9688 36.1605 32.418 34.6078 34.2812 34.6078C36.041 34.6078 37.5938 36.1605 37.5938 37.9203C37.5938 39.7836 36.041 41.2328 34.2812 41.2328Z" fill="#092347"/>
</svg>
