<svg width="56" height="87" viewBox="0 0 56 87" fill="none" xmlns="http://www.w3.org/2000/svg">
<circle cx="30.4506" cy="50.7531" r="24.85" fill="#ABD5DC"/>
<path d="M38.3223 26.5336C39.2539 27.4652 39.875 28.8109 39.875 30.0531V64.4203C39.875 67.2152 37.5977 69.389 34.9062 69.389H5.09375C2.29883 69.389 0.125 67.2152 0.125 64.4203V21.3578C0.125 18.6664 2.29883 16.389 5.09375 16.389H26.2109C27.4531 16.389 28.7988 16.9066 29.7305 17.8383L38.3223 26.5336ZM36.0449 28.9144L27.3496 20.2191C27.1426 20.0121 26.832 19.9086 26.625 19.8051V29.639H36.459C36.3555 29.432 36.252 29.1215 36.0449 28.9144ZM34.9062 66.0765C35.7344 66.0765 36.5625 65.3519 36.5625 64.4203V32.9515H25.7969C24.3477 32.9515 23.3125 31.9164 23.3125 30.4672V19.7015H5.09375C4.16211 19.7015 3.4375 20.5297 3.4375 21.3578V64.4203C3.4375 65.3519 4.16211 66.0765 5.09375 66.0765H34.9062ZM22.7949 42.0609L25.7969 45.0629C26.0039 45.2699 26.0039 45.5804 25.7969 45.7875L14.2031 57.3812L11.0977 57.7953C10.4766 57.8988 9.95898 57.3812 10.0625 56.7601L10.4766 53.6547L22.0703 42.0609C22.2773 41.8539 22.5879 41.8539 22.7949 42.0609ZM29.4199 42.1644L27.7637 43.8207C27.5566 44.0277 27.2461 44.0277 27.0391 43.8207L24.0371 40.8187C23.8301 40.6117 23.8301 40.3011 24.0371 40.0941L25.6934 38.4379C26.3145 37.8168 27.3496 37.8168 27.8672 38.4379L29.4199 39.9906C30.041 40.5082 30.041 41.5433 29.4199 42.1644Z" fill="#092347"/>
</svg>
