<svg width="60" height="88" viewBox="0 0 60 88" fill="none" xmlns="http://www.w3.org/2000/svg">
<circle cx="34.6498" cy="50.6529" r="24.85" fill="#EFC778"/>
<path d="M35.7129 35.8604L36.8516 36.9991C37.1621 37.3096 37.1621 37.8272 36.8516 38.2413L24.0156 51.0772C23.8086 51.2842 23.6016 51.2842 23.3945 51.2842C23.1875 51.2842 22.9805 51.2842 22.7734 51.0772L16.0449 44.2452C15.7344 43.9346 15.7344 43.4171 16.0449 43.1065L17.1836 41.9678C17.3906 41.7608 17.5977 41.7608 17.8047 41.7608C18.0117 41.7608 18.2188 41.8643 18.3223 41.9678L23.3945 46.9366L34.5742 35.8604C34.6777 35.6534 34.8848 35.6534 35.0918 35.6534C35.2988 35.6534 35.6094 35.7569 35.7129 35.8604ZM53 43.4171C53 47.1436 50.9297 50.5596 47.8242 52.3194C48.7559 55.8389 47.8242 59.5655 45.2363 62.1534C42.4414 64.9483 38.7148 65.7764 35.2988 64.8448C33.5391 67.9503 30.123 69.9171 26.5 69.9171C22.7734 69.9171 19.3574 67.9503 17.5977 64.8448C14.2852 65.7764 10.4551 64.9483 7.76367 62.1534C5.07227 59.5655 4.14062 55.8389 5.07227 52.3194C1.9668 50.5596 0 47.1436 0 43.4171C0 39.794 1.9668 36.378 5.07227 34.6182C4.14062 31.0987 5.07227 27.3721 7.76367 24.6807C10.3516 22.0928 14.0781 21.1612 17.5977 22.0928C19.3574 18.9874 22.7734 16.9171 26.5 16.9171C30.123 16.9171 33.5391 18.9874 35.2988 22.0928C38.8184 21.1612 42.5449 22.0928 45.2363 24.6807C47.8242 27.3721 48.7559 31.0987 47.8242 34.6182C50.9297 36.378 53 39.794 53 43.4171ZM43.4766 50.5596C44.5117 50.1456 49.6875 48.9034 49.6875 43.4171C49.6875 38.1378 44.8223 36.8956 43.4766 36.378C43.9941 35.4464 46.6855 30.8917 42.8555 27.0616C39.1289 23.335 34.7812 25.8194 33.5391 26.4405C33.125 25.4053 31.8828 20.2296 26.5 20.2296C21.2207 20.2296 19.875 25.0948 19.3574 26.4405C18.4258 25.9229 13.8711 23.2315 10.041 27.0616C6.31445 30.7881 8.79883 35.1358 9.41992 36.378C8.38477 36.7921 3.3125 38.0342 3.3125 43.4171C3.3125 48.6964 8.17773 50.0421 9.41992 50.5596C8.90234 51.4913 6.21094 56.046 10.041 59.876C13.043 62.878 16.0449 62.0499 19.3574 60.4971C19.7715 61.5323 21.0137 66.6046 26.5 66.6046C31.7793 66.6046 33.0215 61.7393 33.5391 60.4971C36.8516 62.0499 39.8535 62.878 42.8555 59.876C46.582 56.1495 44.0977 51.8018 43.4766 50.5596Z" fill="#092347"/>
</svg>
