<svg width="56" height="88" viewBox="0 0 56 88" fill="none" xmlns="http://www.w3.org/2000/svg">
<circle cx="30.4506" cy="51.753" r="24.85" fill="#ABD5DC"/>
<path d="M18.5 16.9171C28.541 16.9171 36.7188 25.0948 36.7188 35.1358C36.7188 39.794 34.959 43.9346 32.1641 47.1436C29.4727 50.1456 26.9883 55.1143 26.7812 56.6671L26.6777 64.5342C26.6777 64.8448 26.5742 65.1553 26.4707 65.4659L23.8828 69.1924C23.5723 69.71 23.0547 69.9171 22.5371 69.9171H14.3594C13.8418 69.9171 13.3242 69.71 13.0137 69.1924L10.4258 65.4659C10.3223 65.1553 10.2188 64.8448 10.2188 64.5342V56.6671C9.9082 55.1143 7.42383 50.2491 4.73242 47.1436C1.9375 43.9346 0.28125 39.794 0.28125 35.2393C0.177734 25.6124 7.83789 16.9171 18.5 16.9171ZM23.3652 64.0167V63.2921H13.5312V64.0167L15.291 66.6046H21.6055L23.3652 64.0167ZM23.3652 59.9796L23.4688 56.6671H13.4277L13.5312 59.9796H23.3652ZM29.6797 44.9698C32.0605 42.2784 33.4062 38.7589 33.4062 35.1358C33.4062 26.9581 26.6777 20.2296 18.5 20.2296C9.80469 20.2296 3.49023 27.2686 3.59375 35.1358C3.59375 38.7589 4.83594 42.2784 7.2168 44.9698C8.66602 46.626 10.9434 49.9385 12.4961 53.3546H24.4004C25.9531 49.9385 28.2305 46.626 29.6797 44.9698ZM18.5 23.5421C19.3281 23.5421 20.1562 24.3702 20.1562 25.1983C20.1562 26.1299 19.3281 26.8546 18.5 26.8546C13.8418 26.8546 10.2188 30.5811 10.2188 35.1358C10.2188 36.0674 9.39062 36.7921 8.5625 36.7921C7.63086 36.7921 6.90625 36.0674 6.90625 35.1358C6.90625 28.8214 12.082 23.5421 18.5 23.5421Z" fill="#092347"/>
</svg>
