<svg width="56" height="89" viewBox="0 0 56 89" fill="none" xmlns="http://www.w3.org/2000/svg">
<circle cx="30.6508" cy="52.0528" r="24.85" fill="#FF8873"/>
<path d="M48.7932 30.764C51.5174 30.764 53.8224 33.0691 53.8224 35.7932V62.6157C53.8224 65.4446 51.5174 67.6449 48.7932 67.6449H5.20679C2.37786 67.6449 0.177584 65.4446 0.177584 62.6157V35.7932C0.177584 33.0691 2.37786 30.764 5.20679 30.764H16.9416V23.2202C16.9416 21.8582 17.9893 20.7056 19.4562 20.7056H34.5438C35.9059 20.7056 37.0584 21.8582 37.0584 23.2202V30.764H48.7932ZM20.2944 24.0584V30.764H33.7056V24.0584H20.2944ZM50.4696 62.6157V47.528H33.7056V51.719C33.7056 53.1859 32.5531 54.2336 31.191 54.2336H22.809C21.3421 54.2336 20.2944 53.1859 20.2944 51.719V47.528H3.53039V62.6157C3.53039 63.5586 4.26381 64.2921 5.20679 64.2921H48.7932C49.6314 64.2921 50.4696 63.5586 50.4696 62.6157ZM23.6472 50.8808H30.3528V47.528H23.6472V50.8808ZM50.4696 44.1752V35.7932C50.4696 34.955 49.6314 34.1168 48.7932 34.1168H5.20679C4.26381 34.1168 3.53039 34.955 3.53039 35.7932V44.1752H50.4696Z" fill="#092347"/>
</svg>
